<svg width="160" height="150" viewBox="0 0 160 150" fill="none" xmlns="http://www.w3.org/2000/svg">
<g clip-path="url(#clip0_5273_2806)">
<path d="M77.2 134.99C105.2 134.99 127.9 112.29 127.9 84.1904C127.9 56.0904 105.2 33.3904 77.2 33.3904C49.2 33.3904 26.5 56.0904 26.5 84.1904C26.5 112.29 49.2 134.99 77.2 134.99Z" fill="#292D36"/>
<path d="M39.8998 51.2905H112C114.9 51.2905 117.1 53.4905 117.1 56.3905V102.091C117.1 104.991 114.9 107.19 112 107.19H39.8998C36.9998 107.19 34.7998 104.991 34.7998 102.091V56.3905C34.7998 53.4905 37.1998 51.2905 39.8998 51.2905Z" fill="#393F4E"/>
<path d="M39.8998 51.2905H112C114.9 51.2905 117.1 53.4905 117.1 56.3905V102.091C117.1 104.991 114.9 107.19 112 107.19H39.8998C36.9998 107.19 34.7998 104.991 34.7998 102.091V56.3905C34.7998 53.4905 37.1998 51.2905 39.8998 51.2905Z" fill="url(#paint0_linear_5273_2806)" fill-opacity="0.2"/>
<path d="M118.5 80.5905V103.09C118.5 105.99 116.2 108.39 113.2 108.39H39.0998C36.1998 108.39 33.7998 105.99 33.7998 103.09V78.6904" stroke="#1676EE" stroke-width="3" stroke-linecap="round" stroke-linejoin="round"/>
<path d="M112.2 67.9905H88.8C86.5 67.9905 84.3 68.7904 82.6 70.1904L76.5 75.1904C74.8 76.5904 72.6 77.3904 70.3 77.3904H43.9C41.2 77.3904 39 79.5905 39 82.2905C39 82.4905 39 82.7905 39.1 82.9905L44 108.79C44.4 111.19 46.4 112.99 48.9 112.99H105.4C107.8 112.99 109.9 111.29 110.3 108.89L117.1 73.5905C117.6 70.8905 115.8 68.4905 113.1 67.9905C112.7 67.9905 112.4 67.9905 112.2 67.9905Z" fill="white"/>
<g filter="url(#filter0_d_5273_2806)">
<path d="M122.7 61.0905H92.3004C89.3004 61.0905 86.5004 62.0905 84.2004 63.9905L76.2004 70.4905C74.0004 72.2905 71.1004 73.3904 68.1004 73.3904H33.7004C30.2004 73.3904 27.4004 76.2904 27.4004 79.6904C27.4004 79.9904 27.4004 80.2905 27.5004 80.5905L33.8004 114.29C34.3004 117.49 37.0004 119.79 40.1004 119.79H113.7C116.9 119.79 119.5 117.59 120 114.39L128.9 68.2905C129.5 64.7905 127.2 61.6905 123.7 60.9905C123.4 61.0905 123 61.0905 122.7 61.0905Z" fill="#474E61"/>
<path d="M122.7 61.0905H92.3004C89.3004 61.0905 86.5004 62.0905 84.2004 63.9905L76.2004 70.4905C74.0004 72.2905 71.1004 73.3904 68.1004 73.3904H33.7004C30.2004 73.3904 27.4004 76.2904 27.4004 79.6904C27.4004 79.9904 27.4004 80.2905 27.5004 80.5905L33.8004 114.29C34.3004 117.49 37.0004 119.79 40.1004 119.79H113.7C116.9 119.79 119.5 117.59 120 114.39L128.9 68.2905C129.5 64.7905 127.2 61.6905 123.7 60.9905C123.4 61.0905 123 61.0905 122.7 61.0905Z" fill="url(#paint1_linear_5273_2806)" fill-opacity="0.14"/>
</g>
<path d="M72.7 72.2905C69.1 65.2905 68.3 56.8905 70.7 49.2905C73 41.6905 78.5 35.1905 85.3 31.4905C87.4 30.3905 89.8 29.4905 92.2 29.3905C94.6 29.2905 97.2 30.0905 98.8 32.0905C100.4 33.8905 100.7 36.8905 99.4 38.8905C98 40.7905 95.2 41.5905 92.9 40.9905C89.2 40.2905 86.2 37.3905 85.3 33.8905C84.4 30.3905 85.6 26.2905 88.4 23.9905C90.2 22.3905 92.7 21.4905 95 20.7905C106.2 17.4905 118.4 17.0905 129.8 19.5905" stroke="#989FB0" stroke-width="2" stroke-miterlimit="10" stroke-dasharray="4 4"/>
<path d="M135.8 16.9905C135.7 18.4905 135.6 19.8904 134.5 20.1904C133.4 20.4904 132.9 19.4905 132.2 18.0905C131.5 16.7905 131.9 15.3905 133.1 15.0905C134.2 14.7905 136 15.1905 135.8 16.9905Z" fill="#DAE2EB" fill-opacity="0.79"/>
<path d="M134.599 24.1905C134.899 22.3905 135.199 21.3905 134.199 20.8905C133.099 20.3905 132.399 21.2905 131.199 22.4905C130.199 23.5905 130.799 25.1905 131.799 25.6905C132.999 26.2905 134.299 25.6905 134.599 24.1905Z" fill="#DAE2EB" fill-opacity="0.79"/>
<path d="M136 20.8905C135.9 21.5905 135.4 22.0905 134.7 22.1905C134.4 22.1905 134.1 22.1905 133.7 22.1905C132.3 21.9905 131.2 21.0905 131.3 20.1905C131.4 19.2905 132.7 18.7906 134.3 18.9906C134.6 18.9906 134.9 19.0905 135.1 19.1905C135.7 19.3905 136.1 20.0905 136 20.8905Z" fill="#989FB0"/>
<path d="M24.4004 48.9905C24.4004 47.2905 24.4004 45.5905 25.6004 45.0905C26.9004 44.5905 27.6004 45.7905 28.6004 47.4905C29.5004 48.9905 29.1004 50.5905 27.8004 51.0905C26.7004 51.5905 24.4004 51.2905 24.4004 48.9905Z" fill="#DAE2EB" fill-opacity="0.79"/>
<path d="M25.1002 40.5906C24.9002 42.6906 24.6002 43.8906 25.9002 44.3906C27.2002 44.8906 27.9002 43.7905 29.2002 42.1905C30.2002 40.7905 29.5002 38.9906 28.2002 38.4906C26.9002 37.9906 25.3002 38.8906 25.1002 40.5906Z" fill="#DAE2EB" fill-opacity="0.79"/>
<path d="M24 44.5904C24 43.7904 24.6 43.1904 25.3 43.0904C25.6 42.9904 26 42.9904 26.4 43.0904C28 43.1904 29.4 44.0904 29.3 45.0904C29.2 46.0904 27.9 46.7904 26.2 46.5904C25.9 46.5904 25.6 46.4904 25.3 46.3904C24.5 46.2904 24 45.4904 24 44.5904Z" fill="#989FB0"/>
<path d="M30.7998 44.8904C41.2998 44.8904 60.6998 50.9904 60.9998 73.3904" stroke="#989FB0" stroke-width="2" stroke-miterlimit="10" stroke-dasharray="4 4"/>
</g>
<defs>
<filter id="filter0_d_5273_2806" x="5.40039" y="49.9905" width="145.595" height="102.8" filterUnits="userSpaceOnUse" color-interpolation-filters="sRGB">
<feFlood flood-opacity="0" result="BackgroundImageFix"/>
<feColorMatrix in="SourceAlpha" type="matrix" values="0 0 0 0 0 0 0 0 0 0 0 0 0 0 0 0 0 0 127 0" result="hardAlpha"/>
<feOffset dy="11"/>
<feGaussianBlur stdDeviation="11"/>
<feColorMatrix type="matrix" values="0 0 0 0 0.397708 0 0 0 0 0.47749 0 0 0 0 0.575 0 0 0 0.27 0"/>
<feBlend mode="normal" in2="BackgroundImageFix" result="effect1_dropShadow_5273_2806"/>
<feBlend mode="normal" in="SourceGraphic" in2="effect1_dropShadow_5273_2806" result="shape"/>
</filter>
<linearGradient id="paint0_linear_5273_2806" x1="30.3282" y1="45.3608" x2="52.7263" y2="81.3345" gradientUnits="userSpaceOnUse">
<stop stop-color="white"/>
<stop offset="0.9942" stop-color="white" stop-opacity="0"/>
</linearGradient>
<linearGradient id="paint1_linear_5273_2806" x1="21.8804" y1="54.7531" x2="43.6196" y2="95.7287" gradientUnits="userSpaceOnUse">
<stop stop-color="white"/>
<stop offset="0.9942" stop-color="white" stop-opacity="0"/>
</linearGradient>
<clipPath id="clip0_5273_2806">
<rect width="160" height="150" fill="white"/>
</clipPath>
</defs>
</svg>
